<mxfile host="Electron" agent="Mozilla/5.0 (Windows NT 10.0; Win64; x64) AppleWebKit/537.36 (KHTML, like Gecko) draw.io/24.2.5 Chrome/120.0.6099.109 Electron/28.1.0 Safari/537.36" modified="2025-05-20T22:20:33.771Z" version="24.2.5" etag="ZAa1XTdcoJFQLoP0d6AT" type="device">
  <diagram name="Page-1" id="vafjeql0jm9yZ-oHH8du">
    <mxGraphModel dx="733" dy="443" grid="1" gridSize="10" guides="1" tooltips="1" connect="1" arrows="1" fold="1" page="1" pageScale="1" pageWidth="1169" pageHeight="827" math="0" shadow="0">
      <root>
        <mxCell id="0" />
        <mxCell id="1" parent="0" />
        <mxCell id="LG2M_2L7TIFIs1X0_9t3-1" value="east-01" style="points=[[0,0],[0.25,0],[0.5,0],[0.75,0],[1,0],[1,0.25],[1,0.5],[1,0.75],[1,1],[0.75,1],[0.5,1],[0.25,1],[0,1],[0,0.75],[0,0.5],[0,0.25]];outlineConnect=0;gradientColor=none;html=1;whiteSpace=wrap;fontSize=12;fontStyle=0;container=1;pointerEvents=0;collapsible=0;recursiveResize=0;shape=mxgraph.aws4.group;grIcon=mxgraph.aws4.group_region;strokeColor=#00A4A6;fillColor=none;verticalAlign=top;align=left;spacingLeft=30;fontColor=#147EBA;dashed=1;" parent="1" vertex="1">
          <mxGeometry x="10" y="70" width="1159" height="750" as="geometry" />
        </mxCell>
        <mxCell id="LG2M_2L7TIFIs1X0_9t3-3" value="vpc-corporate-aws" style="sketch=0;outlineConnect=0;gradientColor=none;html=1;whiteSpace=wrap;fontSize=12;fontStyle=0;shape=mxgraph.aws4.group;grIcon=mxgraph.aws4.group_vpc;strokeColor=#B6BABF;fillColor=none;verticalAlign=top;align=left;spacingLeft=30;fontColor=#B6BABF;dashed=0;" parent="LG2M_2L7TIFIs1X0_9t3-1" vertex="1">
          <mxGeometry x="30" y="80" width="1080" height="650" as="geometry" />
        </mxCell>
        <mxCell id="LG2M_2L7TIFIs1X0_9t3-4" value="Availability Zone B" style="fillColor=none;strokeColor=#147EBA;dashed=1;verticalAlign=top;fontStyle=0;fontColor=#147EBA;whiteSpace=wrap;html=1;" parent="LG2M_2L7TIFIs1X0_9t3-1" vertex="1">
          <mxGeometry x="670" y="150" width="400" height="560" as="geometry" />
        </mxCell>
        <mxCell id="LG2M_2L7TIFIs1X0_9t3-9" value="Availability Zone A" style="fillColor=none;strokeColor=#147EBA;dashed=1;verticalAlign=top;fontStyle=0;fontColor=#147EBA;whiteSpace=wrap;html=1;" parent="LG2M_2L7TIFIs1X0_9t3-1" vertex="1">
          <mxGeometry x="70" y="150" width="400" height="560" as="geometry" />
        </mxCell>
        <mxCell id="LG2M_2L7TIFIs1X0_9t3-27" value="Private subnet" style="points=[[0,0],[0.25,0],[0.5,0],[0.75,0],[1,0],[1,0.25],[1,0.5],[1,0.75],[1,1],[0.75,1],[0.5,1],[0.25,1],[0,1],[0,0.75],[0,0.5],[0,0.25]];outlineConnect=0;gradientColor=none;html=1;whiteSpace=wrap;fontSize=12;fontStyle=0;container=1;pointerEvents=0;collapsible=0;recursiveResize=0;shape=mxgraph.aws4.group;grIcon=mxgraph.aws4.group_security_group;grStroke=0;strokeColor=#00A4A6;fillColor=#E6F6F7;verticalAlign=top;align=left;spacingLeft=30;fontColor=#147EBA;dashed=0;" parent="LG2M_2L7TIFIs1X0_9t3-1" vertex="1">
          <mxGeometry x="710" y="330" width="320" height="370" as="geometry" />
        </mxCell>
        <mxCell id="LG2M_2L7TIFIs1X0_9t3-26" value="Private subnet" style="points=[[0,0],[0.25,0],[0.5,0],[0.75,0],[1,0],[1,0.25],[1,0.5],[1,0.75],[1,1],[0.75,1],[0.5,1],[0.25,1],[0,1],[0,0.75],[0,0.5],[0,0.25]];outlineConnect=0;gradientColor=none;html=1;whiteSpace=wrap;fontSize=12;fontStyle=0;container=1;pointerEvents=0;collapsible=0;recursiveResize=0;shape=mxgraph.aws4.group;grIcon=mxgraph.aws4.group_security_group;grStroke=0;strokeColor=#00A4A6;fillColor=#E6F6F7;verticalAlign=top;align=left;spacingLeft=30;fontColor=#147EBA;dashed=0;" parent="LG2M_2L7TIFIs1X0_9t3-1" vertex="1">
          <mxGeometry x="110" y="330" width="320" height="370" as="geometry" />
        </mxCell>
        <mxCell id="LG2M_2L7TIFIs1X0_9t3-8" value="EC2 Instances" style="sketch=0;outlineConnect=0;fontColor=#232F3E;gradientColor=none;fillColor=#ED7100;strokeColor=none;dashed=0;verticalLabelPosition=bottom;verticalAlign=top;align=center;html=1;fontSize=12;fontStyle=0;aspect=fixed;pointerEvents=1;shape=mxgraph.aws4.instances;" parent="LG2M_2L7TIFIs1X0_9t3-26" vertex="1">
          <mxGeometry x="125" y="60" width="37.5" height="37.5" as="geometry" />
        </mxCell>
        <mxCell id="LG2M_2L7TIFIs1X0_9t3-22" value="Public subnet" style="points=[[0,0],[0.25,0],[0.5,0],[0.75,0],[1,0],[1,0.25],[1,0.5],[1,0.75],[1,1],[0.75,1],[0.5,1],[0.25,1],[0,1],[0,0.75],[0,0.5],[0,0.25]];outlineConnect=0;gradientColor=none;html=1;whiteSpace=wrap;fontSize=12;fontStyle=0;container=1;pointerEvents=0;collapsible=0;recursiveResize=0;shape=mxgraph.aws4.group;grIcon=mxgraph.aws4.group_security_group;grStroke=0;strokeColor=#7AA116;fillColor=#F2F6E8;verticalAlign=top;align=left;spacingLeft=30;fontColor=#248814;dashed=0;" parent="LG2M_2L7TIFIs1X0_9t3-1" vertex="1">
          <mxGeometry x="110" y="177" width="320" height="140" as="geometry" />
        </mxCell>
        <mxCell id="LG2M_2L7TIFIs1X0_9t3-24" value="Public subnet" style="points=[[0,0],[0.25,0],[0.5,0],[0.75,0],[1,0],[1,0.25],[1,0.5],[1,0.75],[1,1],[0.75,1],[0.5,1],[0.25,1],[0,1],[0,0.75],[0,0.5],[0,0.25]];outlineConnect=0;gradientColor=none;html=1;whiteSpace=wrap;fontSize=12;fontStyle=0;container=1;pointerEvents=0;collapsible=0;recursiveResize=0;shape=mxgraph.aws4.group;grIcon=mxgraph.aws4.group_security_group;grStroke=0;strokeColor=#7AA116;fillColor=#F2F6E8;verticalAlign=top;align=left;spacingLeft=30;fontColor=#248814;dashed=0;" parent="LG2M_2L7TIFIs1X0_9t3-1" vertex="1">
          <mxGeometry x="710" y="177" width="320" height="140" as="geometry" />
        </mxCell>
        <mxCell id="LG2M_2L7TIFIs1X0_9t3-16" style="edgeStyle=orthogonalEdgeStyle;rounded=0;orthogonalLoop=1;jettySize=auto;html=1;" parent="LG2M_2L7TIFIs1X0_9t3-1" source="gOmfdOWUijrLTM53YbJ2-3" target="LG2M_2L7TIFIs1X0_9t3-8" edge="1">
          <mxGeometry relative="1" as="geometry" />
        </mxCell>
        <mxCell id="LG2M_2L7TIFIs1X0_9t3-6" value="Auto Scaling group" style="points=[[0,0],[0.25,0],[0.5,0],[0.75,0],[1,0],[1,0.25],[1,0.5],[1,0.75],[1,1],[0.75,1],[0.5,1],[0.25,1],[0,1],[0,0.75],[0,0.5],[0,0.25]];outlineConnect=0;gradientColor=none;html=1;whiteSpace=wrap;fontSize=12;fontStyle=0;container=0;pointerEvents=0;collapsible=0;recursiveResize=0;shape=mxgraph.aws4.groupCenter;grIcon=mxgraph.aws4.group_auto_scaling_group;grStroke=1;strokeColor=#D86613;fillColor=none;verticalAlign=top;align=center;fontColor=#D86613;dashed=1;spacingTop=25;" parent="LG2M_2L7TIFIs1X0_9t3-1" vertex="1">
          <mxGeometry x="150" y="380" width="836" height="80" as="geometry" />
        </mxCell>
        <mxCell id="LG2M_2L7TIFIs1X0_9t3-48" style="edgeStyle=orthogonalEdgeStyle;rounded=0;orthogonalLoop=1;jettySize=auto;html=1;" parent="LG2M_2L7TIFIs1X0_9t3-1" source="LG2M_2L7TIFIs1X0_9t3-11" target="LG2M_2L7TIFIs1X0_9t3-45" edge="1">
          <mxGeometry relative="1" as="geometry">
            <Array as="points">
              <mxPoint x="870" y="490" />
              <mxPoint x="555" y="490" />
            </Array>
          </mxGeometry>
        </mxCell>
        <mxCell id="LG2M_2L7TIFIs1X0_9t3-11" value="EC2 Instances" style="sketch=0;outlineConnect=0;fontColor=#232F3E;gradientColor=none;fillColor=#ED7100;strokeColor=none;dashed=0;verticalLabelPosition=bottom;verticalAlign=top;align=center;html=1;fontSize=12;fontStyle=0;aspect=fixed;pointerEvents=1;shape=mxgraph.aws4.instances;" parent="LG2M_2L7TIFIs1X0_9t3-1" vertex="1">
          <mxGeometry x="846" y="390" width="39" height="39" as="geometry" />
        </mxCell>
        <mxCell id="LG2M_2L7TIFIs1X0_9t3-40" value="" style="rounded=1;whiteSpace=wrap;html=1;dashed=1;fillColor=none;strokeColor=#FF0080;" parent="LG2M_2L7TIFIs1X0_9t3-1" vertex="1">
          <mxGeometry x="150" y="570" width="840" height="110" as="geometry" />
        </mxCell>
        <mxCell id="LG2M_2L7TIFIs1X0_9t3-39" value="Replication" style="edgeStyle=orthogonalEdgeStyle;rounded=0;orthogonalLoop=1;jettySize=auto;html=1;startArrow=classic;startFill=1;" parent="LG2M_2L7TIFIs1X0_9t3-1" source="LG2M_2L7TIFIs1X0_9t3-37" target="LG2M_2L7TIFIs1X0_9t3-38" edge="1">
          <mxGeometry relative="1" as="geometry" />
        </mxCell>
        <mxCell id="LG2M_2L7TIFIs1X0_9t3-37" value="&lt;span style=&quot;color: rgb(0, 0, 0);&quot;&gt;Amazon RDS Master&lt;/span&gt;&lt;div style=&quot;color: rgb(0, 0, 0);&quot;&gt;Multi AZ&lt;/div&gt;" style="sketch=0;points=[[0,0,0],[0.25,0,0],[0.5,0,0],[0.75,0,0],[1,0,0],[0,1,0],[0.25,1,0],[0.5,1,0],[0.75,1,0],[1,1,0],[0,0.25,0],[0,0.5,0],[0,0.75,0],[1,0.25,0],[1,0.5,0],[1,0.75,0]];outlineConnect=0;fontColor=#232F3E;fillColor=#C925D1;strokeColor=#ffffff;dashed=0;verticalLabelPosition=bottom;verticalAlign=top;align=center;html=1;fontSize=12;fontStyle=0;aspect=fixed;shape=mxgraph.aws4.resourceIcon;resIcon=mxgraph.aws4.rds;" parent="LG2M_2L7TIFIs1X0_9t3-1" vertex="1">
          <mxGeometry x="220" y="586" width="47" height="47" as="geometry" />
        </mxCell>
        <mxCell id="LG2M_2L7TIFIs1X0_9t3-38" value="&lt;span style=&quot;color: rgb(0, 0, 0);&quot;&gt;Amazon RDS Standby&lt;/span&gt;&lt;div style=&quot;color: rgb(0, 0, 0);&quot;&gt;Multi AZ&lt;/div&gt;" style="sketch=0;points=[[0,0,0],[0.25,0,0],[0.5,0,0],[0.75,0,0],[1,0,0],[0,1,0],[0.25,1,0],[0.5,1,0],[0.75,1,0],[1,1,0],[0,0.25,0],[0,0.5,0],[0,0.75,0],[1,0.25,0],[1,0.5,0],[1,0.75,0]];outlineConnect=0;fontColor=#232F3E;fillColor=#C925D1;strokeColor=#ffffff;dashed=0;verticalLabelPosition=bottom;verticalAlign=top;align=center;html=1;fontSize=12;fontStyle=0;aspect=fixed;shape=mxgraph.aws4.resourceIcon;resIcon=mxgraph.aws4.rds;" parent="LG2M_2L7TIFIs1X0_9t3-1" vertex="1">
          <mxGeometry x="840" y="586" width="47" height="47" as="geometry" />
        </mxCell>
        <mxCell id="LG2M_2L7TIFIs1X0_9t3-41" value="Multi AZ Configuration" style="text;html=1;align=center;verticalAlign=middle;whiteSpace=wrap;rounded=0;fontStyle=1" parent="LG2M_2L7TIFIs1X0_9t3-1" vertex="1">
          <mxGeometry x="480" y="680" width="150" height="26" as="geometry" />
        </mxCell>
        <mxCell id="LG2M_2L7TIFIs1X0_9t3-50" style="edgeStyle=orthogonalEdgeStyle;rounded=0;orthogonalLoop=1;jettySize=auto;html=1;" parent="LG2M_2L7TIFIs1X0_9t3-1" source="LG2M_2L7TIFIs1X0_9t3-45" target="LG2M_2L7TIFIs1X0_9t3-37" edge="1">
          <mxGeometry relative="1" as="geometry" />
        </mxCell>
        <mxCell id="LG2M_2L7TIFIs1X0_9t3-45" value="" style="sketch=0;outlineConnect=0;fontColor=#232F3E;gradientColor=none;fillColor=#C925D1;strokeColor=none;dashed=0;verticalLabelPosition=bottom;verticalAlign=top;align=center;html=1;fontSize=12;fontStyle=0;aspect=fixed;pointerEvents=1;shape=mxgraph.aws4.rds_proxy_alt;" parent="LG2M_2L7TIFIs1X0_9t3-1" vertex="1">
          <mxGeometry x="538" y="530" width="34" height="34" as="geometry" />
        </mxCell>
        <mxCell id="LG2M_2L7TIFIs1X0_9t3-51" style="edgeStyle=orthogonalEdgeStyle;rounded=0;orthogonalLoop=1;jettySize=auto;html=1;entryX=0.5;entryY=0;entryDx=0;entryDy=0;entryPerimeter=0;" parent="LG2M_2L7TIFIs1X0_9t3-1" source="LG2M_2L7TIFIs1X0_9t3-45" target="LG2M_2L7TIFIs1X0_9t3-38" edge="1">
          <mxGeometry relative="1" as="geometry" />
        </mxCell>
        <mxCell id="tVnkBzBd7K4qQiAB4yP6-1" value="Amazon Route 53" style="sketch=0;points=[[0,0,0],[0.25,0,0],[0.5,0,0],[0.75,0,0],[1,0,0],[0,1,0],[0.25,1,0],[0.5,1,0],[0.75,1,0],[1,1,0],[0,0.25,0],[0,0.5,0],[0,0.75,0],[1,0.25,0],[1,0.5,0],[1,0.75,0]];outlineConnect=0;fontColor=#232F3E;fillColor=#8C4FFF;strokeColor=#ffffff;dashed=0;verticalLabelPosition=bottom;verticalAlign=top;align=center;html=1;fontSize=12;fontStyle=0;aspect=fixed;shape=mxgraph.aws4.resourceIcon;resIcon=mxgraph.aws4.route_53;" parent="LG2M_2L7TIFIs1X0_9t3-1" vertex="1">
          <mxGeometry x="550" y="10" width="38" height="38" as="geometry" />
        </mxCell>
        <mxCell id="tVnkBzBd7K4qQiAB4yP6-3" style="edgeStyle=orthogonalEdgeStyle;rounded=0;orthogonalLoop=1;jettySize=auto;html=1;entryX=0.5;entryY=0;entryDx=0;entryDy=0;" parent="LG2M_2L7TIFIs1X0_9t3-1" source="tVnkBzBd7K4qQiAB4yP6-1" target="tVnkBzBd7K4qQiAB4yP6-10" edge="1">
          <mxGeometry relative="1" as="geometry" />
        </mxCell>
        <mxCell id="tVnkBzBd7K4qQiAB4yP6-12" value="" style="group" parent="LG2M_2L7TIFIs1X0_9t3-1" vertex="1" connectable="0">
          <mxGeometry x="499" y="104" width="140" height="90" as="geometry" />
        </mxCell>
        <mxCell id="tVnkBzBd7K4qQiAB4yP6-10" value="" style="rounded=0;whiteSpace=wrap;html=1;fillColor=none;fontColor=#ffffff;strokeColor=#3700CC;dashed=1;dashPattern=8 8;" parent="tVnkBzBd7K4qQiAB4yP6-12" vertex="1">
          <mxGeometry width="140" height="90" as="geometry" />
        </mxCell>
        <mxCell id="tVnkBzBd7K4qQiAB4yP6-11" value="" style="group" parent="tVnkBzBd7K4qQiAB4yP6-12" vertex="1" connectable="0">
          <mxGeometry x="31.5" y="10" width="79.5" height="39" as="geometry" />
        </mxCell>
        <mxCell id="tVnkBzBd7K4qQiAB4yP6-2" value="Amazon CloudFront&lt;div&gt;&lt;font style=&quot;font-size: 8px;&quot;&gt;AWS Shield e&amp;nbsp;&lt;/font&gt;&lt;span style=&quot;background-color: transparent; color: light-dark(rgb(35, 47, 62), rgb(189, 199, 212));&quot;&gt;&lt;font style=&quot;font-size: 8px;&quot;&gt;AWS WAF&lt;/font&gt;&lt;/span&gt;&lt;/div&gt;" style="sketch=0;points=[[0,0,0],[0.25,0,0],[0.5,0,0],[0.75,0,0],[1,0,0],[0,1,0],[0.25,1,0],[0.5,1,0],[0.75,1,0],[1,1,0],[0,0.25,0],[0,0.5,0],[0,0.75,0],[1,0.25,0],[1,0.5,0],[1,0.75,0]];outlineConnect=0;fontColor=#232F3E;fillColor=#8C4FFF;strokeColor=#ffffff;dashed=0;verticalLabelPosition=bottom;verticalAlign=top;align=center;html=1;fontSize=12;fontStyle=0;aspect=fixed;shape=mxgraph.aws4.resourceIcon;resIcon=mxgraph.aws4.cloudfront;gradientColor=none;" parent="tVnkBzBd7K4qQiAB4yP6-11" vertex="1">
          <mxGeometry x="18.5" width="39" height="39" as="geometry" />
        </mxCell>
        <mxCell id="tVnkBzBd7K4qQiAB4yP6-5" value="" style="sketch=0;points=[[0,0,0],[0.25,0,0],[0.5,0,0],[0.75,0,0],[1,0,0],[0,1,0],[0.25,1,0],[0.5,1,0],[0.75,1,0],[1,1,0],[0,0.25,0],[0,0.5,0],[0,0.75,0],[1,0.25,0],[1,0.5,0],[1,0.75,0]];outlineConnect=0;fontColor=#232F3E;fillColor=#DD344C;strokeColor=#ffffff;dashed=0;verticalLabelPosition=bottom;verticalAlign=top;align=center;html=1;fontSize=12;fontStyle=0;aspect=fixed;shape=mxgraph.aws4.resourceIcon;resIcon=mxgraph.aws4.waf;" parent="tVnkBzBd7K4qQiAB4yP6-11" vertex="1">
          <mxGeometry x="60.5" y="20" width="19" height="19" as="geometry" />
        </mxCell>
        <mxCell id="tVnkBzBd7K4qQiAB4yP6-6" value="" style="sketch=0;outlineConnect=0;fontColor=#232F3E;gradientColor=none;fillColor=#232F3D;strokeColor=none;dashed=0;verticalLabelPosition=bottom;verticalAlign=top;align=center;html=1;fontSize=12;fontStyle=0;aspect=fixed;pointerEvents=1;shape=mxgraph.aws4.shield2;" parent="tVnkBzBd7K4qQiAB4yP6-11" vertex="1">
          <mxGeometry y="20.5" width="18.5" height="18.5" as="geometry" />
        </mxCell>
        <mxCell id="tVnkBzBd7K4qQiAB4yP6-14" value="" style="edgeStyle=orthogonalEdgeStyle;rounded=0;orthogonalLoop=1;jettySize=auto;html=1;" parent="LG2M_2L7TIFIs1X0_9t3-1" source="LG2M_2L7TIFIs1X0_9t3-8" target="LG2M_2L7TIFIs1X0_9t3-45" edge="1">
          <mxGeometry relative="1" as="geometry">
            <Array as="points">
              <mxPoint x="254" y="490" />
              <mxPoint x="555" y="490" />
            </Array>
            <mxPoint x="269" y="508" as="sourcePoint" />
            <mxPoint x="565" y="580" as="targetPoint" />
          </mxGeometry>
        </mxCell>
        <mxCell id="LG2M_2L7TIFIs1X0_9t3-52" value="IAM user/roule" style="outlineConnect=0;dashed=0;verticalLabelPosition=bottom;verticalAlign=top;align=center;html=1;shape=mxgraph.aws3.iam;fillColor=#759C3E;gradientColor=none;fontStyle=1" parent="LG2M_2L7TIFIs1X0_9t3-1" vertex="1">
          <mxGeometry x="401" y="479" width="26" height="31" as="geometry" />
        </mxCell>
        <mxCell id="tVnkBzBd7K4qQiAB4yP6-15" value="IAM user/roule" style="outlineConnect=0;dashed=0;verticalLabelPosition=bottom;verticalAlign=top;align=center;html=1;shape=mxgraph.aws3.iam;fillColor=#759C3E;gradientColor=none;fontStyle=1" parent="LG2M_2L7TIFIs1X0_9t3-1" vertex="1">
          <mxGeometry x="716" y="479" width="26" height="31" as="geometry" />
        </mxCell>
        <mxCell id="gOmfdOWUijrLTM53YbJ2-5" value="" style="edgeStyle=orthogonalEdgeStyle;rounded=0;orthogonalLoop=1;jettySize=auto;html=1;" edge="1" parent="LG2M_2L7TIFIs1X0_9t3-1" source="tVnkBzBd7K4qQiAB4yP6-10" target="LG2M_2L7TIFIs1X0_9t3-15">
          <mxGeometry relative="1" as="geometry" />
        </mxCell>
        <mxCell id="gOmfdOWUijrLTM53YbJ2-6" value="" style="group;fillColor=none;strokeColor=#9673a6;gradientColor=none;" vertex="1" connectable="0" parent="LG2M_2L7TIFIs1X0_9t3-1">
          <mxGeometry x="310" y="224" width="520" height="71" as="geometry" />
        </mxCell>
        <mxCell id="gOmfdOWUijrLTM53YbJ2-3" value="" style="rounded=0;whiteSpace=wrap;html=1;fillStyle=auto;fillColor=none;strokeColor=#8C4FFF;dashed=1;" vertex="1" parent="gOmfdOWUijrLTM53YbJ2-6">
          <mxGeometry width="520" height="71" as="geometry" />
        </mxCell>
        <mxCell id="LG2M_2L7TIFIs1X0_9t3-15" value="Application Load Balancer" style="sketch=0;outlineConnect=0;fontColor=#232F3E;gradientColor=none;fillColor=#8C4FFF;strokeColor=none;dashed=0;verticalLabelPosition=bottom;verticalAlign=top;align=center;html=1;fontSize=12;fontStyle=0;aspect=fixed;pointerEvents=1;shape=mxgraph.aws4.application_load_balancer;" parent="gOmfdOWUijrLTM53YbJ2-6" vertex="1">
          <mxGeometry x="244" width="30" height="30" as="geometry" />
        </mxCell>
        <mxCell id="gOmfdOWUijrLTM53YbJ2-8" style="edgeStyle=orthogonalEdgeStyle;rounded=0;orthogonalLoop=1;jettySize=auto;html=1;exitX=1;exitY=0.5;exitDx=0;exitDy=0;" edge="1" parent="LG2M_2L7TIFIs1X0_9t3-1" source="gOmfdOWUijrLTM53YbJ2-3" target="LG2M_2L7TIFIs1X0_9t3-11">
          <mxGeometry relative="1" as="geometry">
            <mxPoint x="320" y="280" as="sourcePoint" />
            <mxPoint x="264" y="410" as="targetPoint" />
          </mxGeometry>
        </mxCell>
        <mxCell id="LG2M_2L7TIFIs1X0_9t3-35" value="Users" style="outlineConnect=0;dashed=0;verticalLabelPosition=bottom;verticalAlign=top;align=center;html=1;shape=mxgraph.aws3.users;fillColor=#D2D3D3;gradientColor=none;" parent="1" vertex="1">
          <mxGeometry x="670" y="12" width="28" height="30" as="geometry" />
        </mxCell>
        <mxCell id="LG2M_2L7TIFIs1X0_9t3-36" value="https" style="edgeStyle=orthogonalEdgeStyle;rounded=0;orthogonalLoop=1;jettySize=auto;html=1;" parent="1" source="LG2M_2L7TIFIs1X0_9t3-35" target="tVnkBzBd7K4qQiAB4yP6-1" edge="1">
          <mxGeometry x="-0.4161" y="-5" relative="1" as="geometry">
            <mxPoint as="offset" />
          </mxGeometry>
        </mxCell>
        <mxCell id="gOmfdOWUijrLTM53YbJ2-11" value="Projeto Desafio Final - Arquitetura de Soluções" style="text;html=1;align=left;verticalAlign=middle;whiteSpace=wrap;rounded=0;fontStyle=1;fontSize=21;" vertex="1" parent="1">
          <mxGeometry x="10" y="10" width="520" height="30" as="geometry" />
        </mxCell>
      </root>
    </mxGraphModel>
  </diagram>
</mxfile>
